<mxfile host="app.diagrams.net" modified="2022-08-04T07:49:32.983Z" agent="5.0 (Windows NT 10.0; Win64; x64) AppleWebKit/537.36 (KHTML, like Gecko) Chrome/103.0.0.0 Safari/537.36" etag="y7-bZrqC0f3ilKz5Io-J" version="17.4.6" type="github">
  <diagram id="-MCoCM1zBlwnGbchigNQ" name="Page-1">
    <mxGraphModel dx="1888" dy="539" grid="1" gridSize="10" guides="1" tooltips="1" connect="1" arrows="1" fold="1" page="1" pageScale="1" pageWidth="850" pageHeight="1100" math="0" shadow="0">
      <root>
        <mxCell id="0" />
        <mxCell id="1" parent="0" />
        <mxCell id="GqKv8lYyarbwzNN1-D6R-1" value="JDK&lt;br&gt;MAVEN&lt;br&gt;&lt;br&gt;&lt;br&gt;Sample&amp;nbsp;&lt;br&gt;Hello World Job&lt;br&gt;&lt;br&gt;&lt;br&gt;War" style="rounded=0;whiteSpace=wrap;html=1;fillColor=#ffe6cc;strokeColor=#d79b00;" vertex="1" parent="1">
          <mxGeometry x="330" y="30" width="120" height="350" as="geometry" />
        </mxCell>
        <mxCell id="GqKv8lYyarbwzNN1-D6R-2" value="Git" style="ellipse;whiteSpace=wrap;html=1;fontStyle=5;fillColor=#e1d5e7;strokeColor=#9673a6;" vertex="1" parent="1">
          <mxGeometry x="60" y="205" width="120" height="80" as="geometry" />
        </mxCell>
        <mxCell id="GqKv8lYyarbwzNN1-D6R-3" value="" style="endArrow=none;html=1;rounded=0;entryX=0;entryY=0.5;entryDx=0;entryDy=0;" edge="1" parent="1" target="GqKv8lYyarbwzNN1-D6R-1">
          <mxGeometry width="50" height="50" relative="1" as="geometry">
            <mxPoint x="140" y="210" as="sourcePoint" />
            <mxPoint x="190" y="160" as="targetPoint" />
          </mxGeometry>
        </mxCell>
        <mxCell id="GqKv8lYyarbwzNN1-D6R-4" value="App Server" style="rounded=1;whiteSpace=wrap;html=1;fillColor=#dae8fc;strokeColor=#6c8ebf;" vertex="1" parent="1">
          <mxGeometry x="550" y="120" width="120" height="190" as="geometry" />
        </mxCell>
        <mxCell id="GqKv8lYyarbwzNN1-D6R-5" value="" style="endArrow=none;html=1;rounded=0;" edge="1" parent="1" target="GqKv8lYyarbwzNN1-D6R-4">
          <mxGeometry width="50" height="50" relative="1" as="geometry">
            <mxPoint x="450" y="210" as="sourcePoint" />
            <mxPoint x="640" y="205" as="targetPoint" />
          </mxGeometry>
        </mxCell>
        <mxCell id="GqKv8lYyarbwzNN1-D6R-6" value="CI- Jenkins" style="text;html=1;resizable=0;autosize=1;align=center;verticalAlign=middle;points=[];fillColor=none;strokeColor=none;rounded=0;" vertex="1" parent="1">
          <mxGeometry x="350" y="90" width="80" height="20" as="geometry" />
        </mxCell>
        <mxCell id="GqKv8lYyarbwzNN1-D6R-7" value="Plugins" style="text;html=1;resizable=0;autosize=1;align=center;verticalAlign=middle;points=[];fillColor=none;strokeColor=none;rounded=0;" vertex="1" parent="1">
          <mxGeometry x="510" y="195" width="50" height="20" as="geometry" />
        </mxCell>
        <mxCell id="GqKv8lYyarbwzNN1-D6R-8" value="Webhooks - PayloadURL" style="text;html=1;resizable=0;autosize=1;align=center;verticalAlign=middle;points=[];fillColor=none;strokeColor=none;rounded=0;" vertex="1" parent="1">
          <mxGeometry x="170" y="175" width="150" height="20" as="geometry" />
        </mxCell>
        <mxCell id="GqKv8lYyarbwzNN1-D6R-9" value="" style="shape=singleArrow;whiteSpace=wrap;html=1;" vertex="1" parent="1">
          <mxGeometry x="-20" y="215" width="80" height="60" as="geometry" />
        </mxCell>
        <mxCell id="GqKv8lYyarbwzNN1-D6R-11" value="Trigger" style="text;html=1;resizable=0;autosize=1;align=center;verticalAlign=middle;points=[];fillColor=none;strokeColor=none;rounded=0;" vertex="1" parent="1">
          <mxGeometry x="70" y="290" width="50" height="20" as="geometry" />
        </mxCell>
        <mxCell id="GqKv8lYyarbwzNN1-D6R-12" value="" style="shape=ext;double=1;rounded=0;whiteSpace=wrap;html=1;fillColor=#d5e8d4;strokeColor=#82b366;" vertex="1" parent="1">
          <mxGeometry x="770" y="165" width="120" height="80" as="geometry" />
        </mxCell>
        <mxCell id="GqKv8lYyarbwzNN1-D6R-15" value="" style="endArrow=none;html=1;rounded=0;entryX=-0.037;entryY=0.425;entryDx=0;entryDy=0;entryPerimeter=0;" edge="1" parent="1" target="GqKv8lYyarbwzNN1-D6R-12">
          <mxGeometry width="50" height="50" relative="1" as="geometry">
            <mxPoint x="670" y="200" as="sourcePoint" />
            <mxPoint x="450" y="160" as="targetPoint" />
            <Array as="points" />
          </mxGeometry>
        </mxCell>
        <mxCell id="GqKv8lYyarbwzNN1-D6R-16" value="Image&lt;br&gt;docker&amp;nbsp;&lt;br&gt;container" style="text;html=1;resizable=0;autosize=1;align=center;verticalAlign=middle;points=[];fillColor=none;strokeColor=none;rounded=0;" vertex="1" parent="1">
          <mxGeometry x="800" y="170" width="60" height="50" as="geometry" />
        </mxCell>
      </root>
    </mxGraphModel>
  </diagram>
</mxfile>
